<svg xmlns="http://www.w3.org/2000/svg" width="960" height="620" viewBox="0 0 960 620">
  <defs>
    <style>
      text { font-family: 'SF Mono', 'Cascadia Code', 'Fira Code', monospace; }
    </style>
  </defs>

  <!-- Background -->
  <rect width="960" height="620" fill="#0f1117" rx="8"/>

  <!-- Header -->
  <rect x="0" y="0" width="960" height="48" fill="#1a1d27" rx="8"/>
  <rect x="0" y="40" width="960" height="8" fill="#1a1d27"/>
  <line x1="0" y1="48" x2="960" y2="48" stroke="#2e3348" stroke-width="1"/>
  <text x="28" y="30" fill="#a29bfe" font-size="16" font-weight="700">KYA</text>
  <text x="62" y="30" fill="#e1e4ed" font-size="14" font-weight="600"> — Know Your Agent</text>
  <circle cx="890" cy="24" r="4" fill="#00b894"/>
  <text x="900" y="28" fill="#8b8fa8" font-size="11">Healthy</text>

  <!-- Sidebar -->
  <rect x="0" y="48" width="180" height="572" fill="#1a1d27"/>
  <line x1="180" y1="48" x2="180" y2="620" stroke="#2e3348" stroke-width="1"/>

  <text x="20" y="78" fill="#8b8fa8" font-size="9" letter-spacing="1.5">OVERVIEW</text>
  <text x="20" y="102" fill="#8b8fa8" font-size="12">Dashboard</text>

  <text x="20" y="132" fill="#8b8fa8" font-size="9" letter-spacing="1.5">PHASE 1</text>
  <text x="20" y="156" fill="#8b8fa8" font-size="12">Agents</text>

  <text x="20" y="186" fill="#8b8fa8" font-size="9" letter-spacing="1.5">PHASE 2</text>
  <text x="20" y="210" fill="#8b8fa8" font-size="12">Delegations</text>
  <text x="20" y="234" fill="#8b8fa8" font-size="12">Intent Tokens</text>

  <text x="20" y="264" fill="#8b8fa8" font-size="9" letter-spacing="1.5">PHASE 3</text>
  <rect x="0" y="270" width="180" height="32" fill="#242836"/>
  <rect x="178" y="270" width="2" height="32" fill="#6c5ce7"/>
  <text x="20" y="291" fill="#e1e4ed" font-size="12">Verify Action</text>

  <text x="20" y="324" fill="#8b8fa8" font-size="9" letter-spacing="1.5">PHASE 4</text>
  <text x="20" y="348" fill="#8b8fa8" font-size="12">Revocation</text>
  <text x="20" y="372" fill="#8b8fa8" font-size="12">Step-Up</text>

  <text x="20" y="402" fill="#8b8fa8" font-size="9" letter-spacing="1.5">PHASE 5</text>
  <text x="20" y="426" fill="#8b8fa8" font-size="12">Audit Log</text>

  <!-- Main Content -->
  <!-- Verify Form Card -->
  <rect x="196" y="64" width="748" height="290" fill="#1a1d27" rx="8" stroke="#2e3348" stroke-width="1"/>
  <text x="216" y="92" fill="#a29bfe" font-size="14" font-weight="600">Verify Agent Action</text>

  <!-- Form fields row 1 -->
  <text x="216" y="120" fill="#8b8fa8" font-size="9" letter-spacing="1">AGENT ID</text>
  <rect x="216" y="126" width="350" height="32" fill="#242836" rx="4" stroke="#2e3348" stroke-width="1"/>
  <text x="228" y="147" fill="#e1e4ed" font-size="12">agt_mc_test_001</text>

  <text x="582" y="120" fill="#8b8fa8" font-size="9" letter-spacing="1">ACTION</text>
  <rect x="582" y="126" width="342" height="32" fill="#242836" rx="4" stroke="#2e3348" stroke-width="1"/>
  <text x="594" y="147" fill="#e1e4ed" font-size="12">payment.create</text>

  <!-- Form fields row 2 -->
  <text x="216" y="180" fill="#8b8fa8" font-size="9" letter-spacing="1">SIGNED TOKEN</text>
  <rect x="216" y="186" width="708" height="32" fill="#242836" rx="4" stroke="#2e3348" stroke-width="1"/>
  <text x="228" y="207" fill="#e1e4ed" font-size="12">tok_mc_allow_sandbox</text>

  <!-- Form fields row 3 -->
  <text x="216" y="240" fill="#8b8fa8" font-size="9" letter-spacing="1">ACTION PAYLOAD (JSON)</text>
  <rect x="216" y="246" width="510" height="48" fill="#242836" rx="4" stroke="#2e3348" stroke-width="1"/>
  <text x="228" y="267" fill="#e1e4ed" font-size="11">{"amount_usd": 1200, "currency": "USD",</text>
  <text x="228" y="283" fill="#e1e4ed" font-size="11"> "merchant_id": "MCH_TEST_001"}</text>

  <text x="742" y="240" fill="#8b8fa8" font-size="9" letter-spacing="1">IP ADDRESS</text>
  <rect x="742" y="246" width="182" height="48" fill="#242836" rx="4" stroke="#2e3348" stroke-width="1"/>
  <text x="754" y="275" fill="#e1e4ed" font-size="12">203.0.113.1</text>

  <!-- Verify Button -->
  <rect x="216" y="310" width="140" height="32" fill="#6c5ce7" rx="4"/>
  <text x="248" y="331" fill="white" font-size="12" font-weight="600">Verify Action</text>

  <!-- Result Card -->
  <rect x="196" y="370" width="748" height="234" fill="#1a1d27" rx="8" stroke="#2e3348" stroke-width="1"/>
  <text x="216" y="398" fill="#a29bfe" font-size="14" font-weight="600">Verification Result</text>

  <!-- Result JSON -->
  <rect x="216" y="410" width="708" height="178" fill="#242836" rx="4" stroke="#00b894" stroke-width="1"/>
  <text x="228" y="432" fill="#8b8fa8" font-size="11">{</text>
  <text x="240" y="450" fill="#a29bfe" font-size="11">"decision"</text><text x="322" y="450" fill="#8b8fa8" font-size="11">:</text><text x="336" y="450" fill="#00b894" font-size="11">"allow"</text><text x="386" y="450" fill="#8b8fa8" font-size="11">,</text>
  <text x="240" y="468" fill="#a29bfe" font-size="11">"is_authorized"</text><text x="370" y="468" fill="#8b8fa8" font-size="11">:</text><text x="384" y="468" fill="#00b894" font-size="11">true</text><text x="412" y="468" fill="#8b8fa8" font-size="11">,</text>
  <text x="240" y="486" fill="#a29bfe" font-size="11">"risk_score"</text><text x="342" y="486" fill="#8b8fa8" font-size="11">:</text><text x="356" y="486" fill="#f39c12" font-size="11">5</text><text x="364" y="486" fill="#8b8fa8" font-size="11">,</text>
  <text x="240" y="504" fill="#a29bfe" font-size="11">"decision_id"</text><text x="350" y="504" fill="#8b8fa8" font-size="11">:</text><text x="364" y="504" fill="#00b894" font-size="11">"dec_sandbox_a3f2c1"</text><text x="548" y="504" fill="#8b8fa8" font-size="11">,</text>
  <text x="240" y="522" fill="#a29bfe" font-size="11">"constraints_verified"</text><text x="442" y="522" fill="#8b8fa8" font-size="11">: {</text>
  <text x="260" y="540" fill="#a29bfe" font-size="11">"amount_within_limit"</text><text x="450" y="540" fill="#8b8fa8" font-size="11">:</text><text x="464" y="540" fill="#00b894" font-size="11">true</text><text x="492" y="540" fill="#8b8fa8" font-size="11">, ...</text>
  <text x="240" y="558" fill="#8b8fa8" font-size="11">}</text>
  <text x="228" y="576" fill="#8b8fa8" font-size="11">}</text>
</svg>
